<?xml version="1.0" standalone="no"?>
<!DOCTYPE svg PUBLIC "-//W3C//DTD SVG 20010904//EN"
 "http://www.w3.org/TR/2001/REC-SVG-20010904/DTD/svg10.dtd">
<svg version="1.0" xmlns="http://www.w3.org/2000/svg"
 width="16.000000pt" height="16.000000pt" viewBox="0 0 16.000000 16.000000"
 preserveAspectRatio="xMidYMid meet">
<metadata>
Created by potrace 1.11, written by Peter Selinger 2001-2013
</metadata>
<g transform="translate(0.000000,16.000000) scale(0.003125,-0.003125)"
fill="#000000" stroke="none">
<path d="M1018 3605 c-2 -1 -39 -5 -83 -9 -44 -4 -98 -11 -120 -16 -22 -5 -51
-11 -65 -14 -201 -41 -392 -143 -518 -275 -106 -112 -160 -221 -209 -423 -9
-41 -12 -302 -3 -358 18 -116 23 -137 47 -215 131 -419 477 -709 918 -770 89
-12 257 -13 312 -1 15 4 37 8 48 10 37 7 110 27 130 35 11 5 40 17 65 27 238
95 474 324 608 589 139 274 163 514 76 738 -14 37 -25 69 -23 71 2 2 33 11 69
20 36 10 106 33 155 51 124 46 134 47 196 18 30 -14 106 -45 169 -70 63 -25
116 -46 117 -47 1 -1 -9 -35 -22 -75 -32 -95 -37 -119 -40 -220 -5 -184 69
-411 196 -607 198 -304 483 -497 799 -541 76 -11 264 -7 330 5 132 26 172 38
270 80 341 144 586 465 654 857 21 122 14 368 -13 470 -74 274 -243 460 -520
571 -244 99 -579 127 -847 70 -53 -11 -210 -69 -276 -101 -166 -82 -327 -214
-428 -350 -29 -38 -54 -72 -55 -73 -5 -6 -168 56 -260 99 -122 56 -139 56
-323 -7 -87 -29 -173 -56 -192 -59 -34 -6 -38 -4 -70 41 -55 77 -183 198 -273
258 -170 113 -311 168 -539 212 -32 6 -275 14 -280 9z m272 -100 c254 -44 471
-150 641 -312 294 -281 337 -599 134 -981 -157 -295 -406 -504 -690 -577 -94
-24 -132 -29 -255 -28 -388 3 -728 211 -903 551 -115 223 -150 476 -101 736
22 117 92 245 189 341 129 130 311 219 510 251 22 3 43 8 46 10 3 2 48 6 100
10 52 4 95 8 97 9 5 4 198 -4 232 -10z m2883 1 c37 -4 78 -9 90 -12 12 -2 33
-6 47 -9 70 -13 92 -19 175 -47 150 -52 230 -101 335 -208 77 -77 124 -154
161 -260 21 -58 25 -76 37 -170 12 -85 5 -282 -13 -350 -1 -3 -5 -21 -9 -40
-55 -252 -215 -487 -426 -629 -73 -49 -200 -111 -259 -127 -211 -57 -417 -62
-581 -15 -284 81 -527 289 -678 580 -191 369 -161 660 98 935 176 187 458 329
705 353 33 3 61 6 62 7 5 5 193 -2 256 -8z"/>
</g>
</svg>
